# xmcd CD database file
# Copyright (C) 1993-1998 Ti Kan
#
# Track frame offsets:
#  182
#  14865
#  34745
#  47900
#  66355
#  81082
#  96710
#  113842
#  135087
#  152240
#
# Disc length: 2262 seconds
#
# Revision: 1
# Processed by: cddbd v1.4b41PL1 Copyright (c) Steve Scherf et al.
# Submitted via: CDWizzard Release:4.35
#
DISCID=8908d40a
DTITLE=Terry Kelly - Divided Highway
DYEAR=1900
DGENRE=
TTITLE0=The Girl Is On a Roll Tonight
TTITLE1=River of No Return
TTITLE2=There Goes the Fire
TTITLE3=We can do Anything
TTITLE4=Your Backyard
TTITLE5=In My Fathers House
TTITLE6=I Ain't Got No Money
TTITLE7=Heart Set On You
TTITLE8=Roy Orbison Came On
TTITLE9=You Can't Stop Rock n' Roll
EXTD=
EXTT0=
EXTT1=
EXTT2=
EXTT3=
EXTT4=
EXTT5=
EXTT6=
EXTT7=
EXTT8=
EXTT9=
PLAYORDER=
